<svg xmlns="http://www.w3.org/2000/svg" width="18.304" height="12.813" viewBox="0 0 18.304 12.813">
  <path id="Path_1250" data-name="Path 1250" d="M8.406,13.008C6.265,13.008,2,14.079,2,16.211v1.6H14.813v-1.6C14.813,14.079,10.548,13.008,8.406,13.008ZM4.142,15.982a8.824,8.824,0,0,1,4.265-1.144,8.824,8.824,0,0,1,4.265,1.144Zm4.265-4.576A3.2,3.2,0,1,0,5.2,8.2,3.207,3.207,0,0,0,8.406,11.406Zm0-4.576A1.373,1.373,0,1,1,7.033,8.2,1.371,1.371,0,0,1,8.406,6.83Zm6.443,6.232a3.837,3.837,0,0,1,1.794,3.148v1.6H20.3v-1.6C20.3,14.362,17.1,13.31,14.849,13.063ZM13.9,11.406A3.2,3.2,0,1,0,13.9,5a3.153,3.153,0,0,0-1.373.32,5,5,0,0,1,0,5.766A3.153,3.153,0,0,0,13.9,11.406Z" transform="translate(-2 -5)" fill="#8d8d8d"/>
</svg>
