<svg id="Group_2636" data-name="Group 2636" xmlns="http://www.w3.org/2000/svg" width="25" height="22.85" viewBox="0 0 25 22.85">
  <g id="Group_2636-2" data-name="Group 2636">
    <path id="Path_1170" data-name="Path 1170" d="M-51.234,18.63h22.85V41.48h-22.85Z" transform="translate(51.234 -18.63)" fill="none"/>
  </g>
  <path id="Path_1171" data-name="Path 1171" d="M-32.121,30.76a7.457,7.457,0,0,1-1.58,4.056l-1.361-1.362-1.39-1.381-1.428-1.438a1.886,1.886,0,0,0-.467-1.809l-.019-.019a1.894,1.894,0,0,0-2.647-.038c-.01.01-.029.019-.048.038a1.908,1.908,0,0,0,0,2.694l.019.019a1.88,1.88,0,0,0,1.818.467l1.438,1.438,1.381,1.371,1.352,1.352a7.448,7.448,0,0,1-4.656,1.619,7.627,7.627,0,0,1-7.617-7.617,7.627,7.627,0,0,1,7.617-7.617,7.494,7.494,0,0,1,3.532.876,5.457,5.457,0,0,1,.743-1.761,9.343,9.343,0,0,0-4.275-1.019,9.524,9.524,0,0,0-9.521,9.521,9.524,9.524,0,0,0,9.521,9.521,9.506,9.506,0,0,0,6.027-2.152,9.91,9.91,0,0,0,.743-.676c.029-.029.048-.057.067-.076a7.651,7.651,0,0,0,.533-.59,9.447,9.447,0,0,0,2.1-5.1A6.161,6.161,0,0,1-32.121,30.76Z" transform="translate(51.138 -18.726)" fill="#8d8d8d"/>
  <path id="error_black_24dp" data-name="error black 24dp" d="M-29.438,20.86a4.053,4.053,0,0,0-4.053,4.054,4.053,4.053,0,0,0,4.053,4.053,4.053,4.053,0,0,0,4.054-4.053h0A4.056,4.056,0,0,0-29.438,20.86Zm.406,6.08h-.81v-.81h.81Zm0-1.621h-.81V22.887h.81Z" transform="translate(50.384 -18.737)" fill="#8d8d8d"/>
</svg>
