<svg xmlns="http://www.w3.org/2000/svg" width="17.516" height="15.016" viewBox="0 0 17.516 15.016">
  <g id="Group_2994" data-name="Group 2994" transform="translate(-2 -4)">
    <g id="Group_2995" data-name="Group 2995" transform="translate(2 4)">
      <path id="Path_1252" data-name="Path 1252" d="M3.767,17.416v-.574a.835.835,0,0,1,.362-.715,9.618,9.618,0,0,1,4.938-1.36.194.194,0,0,1,.071.009,6.082,6.082,0,0,1,.521-1.749C9.464,13.009,9.27,13,9.066,13a11.373,11.373,0,0,0-5.839,1.608A2.581,2.581,0,0,0,2,16.842v2.341h8.179a6.3,6.3,0,0,1-.857-1.767Z" transform="translate(-2 -5.05)" fill="#8d8d8d"/>
      <path id="Path_1253" data-name="Path 1253" d="M9.533,11.066A3.533,3.533,0,1,0,6,7.533,3.532,3.532,0,0,0,9.533,11.066Zm0-5.3A1.767,1.767,0,1,1,7.767,7.533,1.772,1.772,0,0,1,9.533,5.767Z" transform="translate(-2.467 -4)" fill="#8d8d8d"/>
      <path id="Path_1254" data-name="Path 1254" d="M19.749,15.416a3.832,3.832,0,0,0-.053-.556l1.007-.892-.883-1.528-1.281.433a3.221,3.221,0,0,0-.954-.556L17.32,11H15.553l-.265,1.316a3.221,3.221,0,0,0-.954.556l-1.281-.433-.883,1.528,1.007.892a3.832,3.832,0,0,0-.053.556,3.832,3.832,0,0,0,.053.556l-1.007.892.883,1.528,1.281-.433a3.221,3.221,0,0,0,.954.556l.265,1.316H17.32l.265-1.316a3.221,3.221,0,0,0,.954-.556l1.281.433.883-1.528L19.7,15.973A3.832,3.832,0,0,0,19.749,15.416Zm-3.312,1.767A1.767,1.767,0,1,1,18.2,15.416,1.772,1.772,0,0,1,16.436,17.183Z" transform="translate(-3.187 -4.817)" fill="#8d8d8d"/>
    </g>
  </g>
</svg>
