<svg xmlns="http://www.w3.org/2000/svg" width="12.813" height="12.813" viewBox="0 0 12.813 12.813">
  <path id="Trazado_1250" data-name="Trazado 1250" d="M8.406,13.008C6.265,13.008,2,14.079,2,16.211v1.6H14.813v-1.6C14.813,14.079,10.548,13.008,8.406,13.008ZM4.142,15.982a8.824,8.824,0,0,1,4.265-1.144,8.824,8.824,0,0,1,4.265,1.144Zm4.265-4.576A3.2,3.2,0,1,0,5.2,8.2,3.207,3.207,0,0,0,8.406,11.406Zm0-4.576A1.373,1.373,0,1,1,7.033,8.2,1.371,1.371,0,0,1,8.406,6.83Z" transform="translate(-2 -5)" fill="#8d8d8d"/>
</svg>
